<?xml version="1.0" encoding="utf-8"?>
<svg xmlns="http://www.w3.org/2000/svg" viewBox="-0.688 45.5863 513.3435 420.9225" width="513.343px" height="420.923px" preserveAspectRatio="none"><path d="M0 0 C1.27555693 -0.00467997 2.55111385 -0.00935994 3.86532402 -0.01418173 C7.38079729 -0.02663223 10.89602426 -0.02054878 14.41149807 -0.01122308 C18.21251987 -0.00440833 22.01350063 -0.01492579 25.81451416 -0.02316284 C33.25080308 -0.03647659 40.68700097 -0.03363298 48.1232934 -0.02492492 C54.16893413 -0.01813948 60.21454942 -0.01723537 66.26019287 -0.02049637 C67.12186345 -0.02095607 67.98353403 -0.02141577 68.87131584 -0.0218894 C70.62198719 -0.02284861 72.37265854 -0.02382125 74.12332988 -0.02480717 C90.5250008 -0.03335416 106.92662136 -0.02353779 123.32828403 -0.00740607 C137.39026795 0.00599648 151.45217757 0.00366819 165.51416016 -0.01016235 C181.85863785 -0.02623039 198.20307144 -0.03253025 214.54755592 -0.02332556 C216.29165267 -0.02236995 218.03574943 -0.02142684 219.77984619 -0.02049637 C220.6378916 -0.02003354 221.495937 -0.01957072 222.37998378 -0.01909386 C228.41574788 -0.01650765 234.45148391 -0.02086702 240.48724365 -0.02793503 C247.84656893 -0.03636383 255.20579825 -0.03404093 262.56511259 -0.0180928 C266.31726834 -0.01022861 270.06926433 -0.00708669 273.82141876 -0.01704025 C277.89443025 -0.02768126 281.96704112 -0.01494368 286.04003906 0 C287.21806532 -0.00669217 288.39609158 -0.01338433 289.6098156 -0.02027929 C301.70975617 0.06573193 310.30799373 2.74979291 318.96533203 11.30282593 C325.89797898 18.7866038 328.14805238 26.0420236 328.14027405 36.20829773 C328.14155569 37.2192598 328.14155569 37.2192598 328.14286321 38.25064534 C328.144506 40.50154601 328.13901638 42.75237161 328.13354492 45.00326538 C328.13326276 46.61974587 328.13342134 48.23622649 328.13398743 49.85270691 C328.13427429 54.23657977 328.12839549 58.62042527 328.12141347 63.00429177 C328.11516145 67.5873782 328.11457467 72.17046526 328.11338806 76.7535553 C328.1102802 85.43030682 328.10207415 94.10704574 328.09203857 102.78379172 C328.08086052 112.662799 328.07536272 122.54180689 328.07034314 132.42081892 C328.0598911 152.74086996 328.04230219 173.06090965 328.02001953 193.38095093 C329.02742188 193.35194702 330.03482422 193.32294312 331.07275391 193.2930603 C332.41974743 193.26959352 333.76675362 193.24684539 335.11376953 193.22470093 C336.43054688 193.19569702 337.74732422 193.16669312 339.10400391 193.1368103 C347.11399846 193.63618652 353.62656938 197.49246288 359.08251953 203.25595093 C365.58830409 210.90397246 365.46187202 219.54022114 365.43994141 229.07382202 C365.44729199 230.44792872 365.45588109 231.82202927 365.46560669 233.19612122 C365.48772748 236.90906565 365.49075815 240.62178753 365.48885918 244.3347888 C365.48873904 247.44341307 365.4973208 250.55199094 365.50563669 253.66060221 C365.52483679 260.9993831 365.52776699 268.33805025 365.52099609 275.67684937 C365.51435761 283.22736417 365.53721936 290.77739017 365.57430983 298.32780588 C365.60507853 304.82915971 365.61635913 311.33035687 365.61247301 317.83178198 C365.6104129 321.70652045 365.61576957 325.58087836 365.6403656 329.45554733 C365.66274963 333.10183279 365.66065986 336.74732745 365.64043808 340.39361763 C365.63544319 342.35496432 365.6549622 344.31632655 365.67544556 346.27757263 C365.58384934 355.99043334 363.24057915 362.90989521 356.83251953 370.25595093 C347.82549869 378.39946221 336.8411276 378.00440596 325.40283203 377.98251343 C323.69708852 377.99030521 321.99134883 377.99897818 320.28561401 378.00848389 C316.72348409 378.02333894 313.16175085 378.02287704 309.59960938 378.01229858 C305.06486608 378.00071792 300.53175896 378.03457852 295.99728584 378.08098793 C292.47788212 378.1106442 288.95886432 378.11218182 285.43935776 378.10596848 C283.76900874 378.10698586 282.0986355 378.11728918 280.42840958 378.13759232 C270.10073465 378.24775039 261.76580473 377.62351094 253.02001953 371.38095093 C245.77317529 364.21996907 242.89775691 356.62461946 242.67944336 346.48422241 C242.67991437 343.82219863 242.69597993 341.16356085 242.72705078 338.50204468 C242.73265717 337.08001659 242.73692233 335.65798265 242.73991394 334.23594666 C242.75128084 330.52213084 242.78067582 326.80867599 242.81402588 323.09500122 C242.85034868 318.62370002 242.86392686 314.15227706 242.8813858 309.68087006 C242.91031977 302.91398054 242.96786221 296.14788051 243.02001953 289.38095093 C224.21001953 289.38095093 205.40001953 289.38095093 186.02001953 289.38095093 C186.02001953 300.93095093 186.02001953 312.48095093 186.02001953 324.38095093 C194.35226906 324.18366505 194.35226906 324.18366505 202.68286133 323.93051147 C212.27234888 323.81572496 212.27234888 323.81572496 215.31689453 326.67782593 C217.55215538 330.22553351 217.6940633 332.26179457 217.02001953 336.38095093 C214.80138924 339.28812166 213.50057025 340.22076736 210.02001953 341.38095093 C208.21725023 341.47774144 206.41110084 341.51590675 204.60574341 341.52139282 C203.48134857 341.52710297 202.35695374 341.53281311 201.19848633 341.53869629 C199.96412842 341.53981415 198.72977051 341.54093201 197.45800781 341.54208374 C195.50893021 341.5495311 195.50893021 341.5495311 193.52047729 341.55712891 C189.95431776 341.57024527 186.38817705 341.57669625 182.82199717 341.58113956 C180.5938927 341.58407124 178.36579338 341.58817621 176.1376915 341.59264374 C169.16608966 341.60631604 162.19449957 341.61598427 155.22288525 341.61984563 C147.1756993 341.62432727 139.12868313 341.64188111 131.08154881 341.67084622 C124.86065133 341.69246065 118.63980163 341.70254976 112.41886699 341.70388675 C108.70358749 341.70493486 104.98846765 341.71084397 101.27322769 341.72870636 C97.12898701 341.74824404 92.98510193 341.74389906 88.84082031 341.73739624 C87.61051086 341.74661102 86.38020142 341.75582581 85.11260986 341.76531982 C83.98257538 341.75975067 82.85254089 341.75418152 81.68826294 341.7484436 C80.21877795 341.75064344 80.21877795 341.75064344 78.7196064 341.75288773 C75.48839443 341.30770604 73.63928397 340.30096762 71.02001953 338.38095093 C69.02001953 335.38095093 69.02001953 335.38095093 69.20751953 331.88095093 C69.99161113 328.50332558 70.28826932 327.34781108 73.02001953 325.38095093 C75.68180174 324.05005982 77.70741349 324.268261 80.68408203 324.28329468 C81.69422363 324.28579224 82.70436523 324.28828979 83.74511719 324.29086304 C85.03208496 324.29996704 86.31905273 324.30907104 87.64501953 324.31845093 C93.77064453 324.34938843 93.77064453 324.34938843 100.02001953 324.38095093 C100.02001953 312.83095093 100.02001953 301.28095093 100.02001953 289.38095093 C81.87001953 289.38095093 63.72001953 289.38095093 45.02001953 289.38095093 C45.05482422 296.3393103 45.08962891 303.29766968 45.12548828 310.46688843 C45.14082533 314.88746979 45.15526784 319.30801813 45.16650391 323.72860718 C45.18440469 330.73795423 45.20553226 337.74718319 45.24633789 344.75643921 C45.27904581 350.41041988 45.29689669 356.06427381 45.30465126 361.71834183 C45.31017427 363.87039814 45.32095918 366.02244788 45.3372097 368.17444992 C45.35913583 371.19965096 45.36198011 374.22433497 45.3605957 377.24960327 C45.37138153 378.13002289 45.38216736 379.0104425 45.39328003 379.9175415 C45.33876342 390.99979067 41.62708411 401.06070708 34.23876953 409.38876343 C26.64314499 416.57970306 17.10066771 420.47951512 6.67808533 420.52812195 C5.61995636 420.53527725 4.56182739 420.54243256 3.47163391 420.54980469 C1.7455616 420.55383804 1.7455616 420.55383804 -0.01538086 420.55795288 C-1.23553894 420.56452408 -2.45569702 420.57109528 -3.71282959 420.5778656 C-7.75110117 420.59757616 -11.78933306 420.60926414 -15.82763672 420.61923218 C-17.22316443 420.62328297 -18.61869196 420.62739998 -20.01421928 420.63158226 C-26.57522849 420.6506216 -33.13622656 420.66485293 -39.69725806 420.67319423 C-47.24407827 420.68294976 -54.79060387 420.70923015 -62.33732039 420.74969512 C-68.18724426 420.77997363 -74.03708426 420.79467431 -79.8870849 420.79797524 C-83.37291122 420.80031317 -86.8584224 420.80910708 -90.34416389 420.83443642 C-94.24247506 420.86230672 -98.14040687 420.85785031 -102.03881836 420.85092163 C-103.74363625 420.87013672 -103.74363625 420.87013672 -105.4828949 420.88973999 C-118.06483685 420.80868487 -127.70695208 417.16708202 -136.84716797 408.63876343 C-147.75186229 397.359659 -147.70780785 384.37047744 -147.62695312 369.65634155 C-147.63373838 367.57553851 -147.64264658 365.49474147 -147.65350342 363.41395569 C-147.67619516 357.79198773 -147.6675022 352.17048126 -147.65160799 346.54850578 C-147.63889645 340.64844448 -147.65070366 334.74842111 -147.65853882 328.84835815 C-147.66762009 318.94264679 -147.65568736 309.03712218 -147.63183594 299.13143921 C-147.60462777 287.70009407 -147.61344299 276.26919492 -147.64096797 264.83786058 C-147.66370135 255.00053116 -147.66683841 245.16333552 -147.65377462 235.32598829 C-147.6460034 229.46047124 -147.64487436 223.59516341 -147.66145706 217.72966003 C-147.67596409 212.21363901 -147.6657662 206.69818965 -147.63698578 201.18223 C-147.63040823 199.16512308 -147.63221513 197.14796755 -147.6432991 195.13088036 C-147.71647223 180.45491285 -146.36095499 168.73644119 -135.71826172 157.64657593 C-127.24723146 150.63773492 -117.75165037 147.24825098 -106.80297852 147.26742554 C-106.0999913 147.26727951 -105.39700409 147.26713348 -104.67271423 147.26698303 C-102.36234388 147.26767652 -100.05205539 147.27544236 -97.74169922 147.28329468 C-96.13458805 147.28516086 -94.52747632 147.28658382 -92.92036438 147.2875824 C-88.7002911 147.29139178 -84.4802525 147.30120853 -80.26019287 147.31228638 C-75.94999663 147.3225345 -71.63979477 147.3270873 -67.32958984 147.3321228 C-58.87970418 147.34283226 -50.42984664 147.35988966 -41.97998047 147.38095093 C-41.98366764 146.77779651 -41.98735481 146.17464209 -41.99115372 145.55321026 C-42.07971993 130.83682459 -42.14579433 116.12045472 -42.18722916 101.40386486 C-42.20780243 94.28683553 -42.23582191 87.16998475 -42.28173828 80.05307007 C-42.32176748 73.84566076 -42.34745128 67.63838084 -42.35633445 61.43084604 C-42.36152228 58.14781235 -42.37574398 54.86523221 -42.4029007 51.58229637 C-42.43209309 47.90583058 -42.43592969 44.23012207 -42.43408203 40.55355835 C-42.44846313 39.4803685 -42.46284424 38.40717865 -42.47766113 37.3014679 C-42.42306444 27.20947852 -40.01001407 18.53905899 -32.89013672 11.16220093 C-22.8539108 1.80326632 -13.55833313 -0.07702257 0 0 Z M-22.31067443 24.1151219 C-25.14036039 28.78947025 -26.10615415 32.81524411 -26.10023499 38.18984985 C-26.10160965 39.15456207 -26.10298431 40.11927429 -26.10440063 41.11322021 C-26.10080536 42.1648233 -26.09721008 43.21642639 -26.09350586 44.29989624 C-26.09365189 45.41238739 -26.09379791 46.52487854 -26.09394836 47.67108154 C-26.09325137 51.3504328 -26.08546886 55.02973351 -26.07763672 58.70907593 C-26.07577178 61.25926689 -26.07434824 63.80945821 -26.073349 66.35964966 C-26.06992019 72.38732422 -26.06203764 78.41497707 -26.05199951 84.44264293 C-26.04081809 91.30596412 -26.03532281 98.16928619 -26.03030407 105.03261423 C-26.01985448 119.14873651 -26.00226768 133.26484273 -25.97998047 147.38095093 C-24.30210449 147.39496948 -24.30210449 147.39496948 -22.59033203 147.40927124 C-18.38535739 147.44955993 -14.18108491 147.51542037 -9.9765625 147.58847046 C-8.16708491 147.61645705 -6.35749013 147.63778091 -4.54785156 147.65194702 C9.4932689 147.76837422 21.7498234 148.49864578 32.82861328 158.11923218 C49.83389773 175.67014072 44.52092791 203.42091959 45.02001953 225.38095093 C110.36001953 225.38095093 175.70001953 225.38095093 243.02001953 225.38095093 C243.68001953 221.42095093 244.34001953 217.46095093 245.02001953 213.38095093 C248.5216627 204.80796249 253.8812031 199.02373929 262.54589844 195.29354858 C267.27558671 194.05113293 271.79661974 194.02459362 276.66845703 193.96688843 C278.1872496 193.9378392 278.1872496 193.9378392 279.73672485 193.90820312 C282.95607195 193.8486437 286.17545527 193.80211645 289.39501953 193.75595093 C291.58383681 193.71774941 293.77263941 193.67869642 295.96142578 193.63876343 C301.31415958 193.5429617 306.66698253 193.45784559 312.02001953 193.38095093 C312.0667708 172.91848533 312.10202371 152.4560306 312.12364388 131.99352264 C312.13394997 122.49211337 312.14799757 112.99073732 312.17089844 103.48934937 C312.19085271 95.20652128 312.20374082 86.92371726 312.20819652 78.6408658 C312.21080044 74.25646263 312.21690694 69.87212828 312.23147964 65.48774719 C312.24509574 61.35755274 312.24923404 57.22745521 312.24623489 53.09724045 C312.24678326 51.58479154 312.25073666 50.07233926 312.25843048 48.55990982 C312.75020359 34.79804077 312.75020359 34.79804077 306.64501953 23.00595093 C306.05978516 22.35884155 305.47455078 21.71173218 304.87158203 21.04501343 C301.30746925 17.84182346 298.42806882 17.130728 293.67755508 17.12088871 C292.58770506 17.11382312 291.49785504 17.10675753 290.37497926 17.09947783 C288.57967794 17.10310045 288.57967794 17.10310045 286.74810791 17.10679626 C285.4762664 17.10155959 284.20442489 17.09632291 282.89404273 17.09092754 C279.36121286 17.07673461 275.82847092 17.07508449 272.29561663 17.07552445 C268.4863455 17.07387737 264.67711071 17.06081286 260.86785889 17.04933167 C252.5372463 17.02647371 244.20665917 17.01856016 235.87601948 17.01350522 C230.67441999 17.01024903 225.47282791 17.00372701 220.2712326 16.99650383 C205.86973941 16.97693662 191.4682531 16.9605332 177.06674576 16.9576273 C176.14500403 16.95743973 175.2232623 16.95725216 174.273589 16.9570589 C172.40498591 16.95669265 170.53638281 16.95632895 168.66777971 16.95596779 C167.27641088 16.95569357 167.27641088 16.95569357 165.85693359 16.95541382 C164.92822227 16.95523327 163.99951096 16.95505272 163.04265687 16.9548667 C147.99417786 16.95132506 132.94584195 16.92430386 117.89741257 16.88691593 C102.44771009 16.8488382 86.99807862 16.82946986 71.54832816 16.82916778 C62.87372286 16.82858308 54.19928825 16.82008291 45.52472687 16.79117012 C38.13808445 16.76666332 30.75167497 16.7593685 23.3650029 16.77441765 C19.59681772 16.78158961 15.82909255 16.78071747 12.06095886 16.75800705 C7.97358928 16.73360886 3.88726746 16.74804461 -0.20013428 16.76622009 C-1.38807894 16.75302013 -2.57602359 16.73982016 -3.79996657 16.72622019 C-11.31807864 16.80267107 -17.50704242 17.85499038 -22.31067443 24.1151219 Z M-125.85498047 172.25595093 C-126.68642578 173.21114624 -126.68642578 173.21114624 -127.53466797 174.18563843 C-130.95868299 179.38643962 -131.27326988 184.67627476 -131.25413513 190.74185181 C-131.25937181 191.56888383 -131.26460849 192.39591585 -131.27000386 193.24800944 C-131.28497168 196.01144812 -131.2857083 198.7747011 -131.28637695 201.53817749 C-131.29400063 203.52281506 -131.30242848 205.50744967 -131.31159973 207.49208069 C-131.3335317 212.8785944 -131.34234196 218.26505134 -131.34742618 223.65160465 C-131.35107143 227.01900211 -131.3573124 230.38638475 -131.36442757 233.75377655 C-131.38891802 245.50760042 -131.40197299 257.26138019 -131.40551758 269.01522827 C-131.409152 279.96135403 -131.43904193 290.90719926 -131.48092216 301.8532393 C-131.51564401 311.25896864 -131.53106635 320.6646051 -131.53176361 330.07039809 C-131.5325558 335.68447265 -131.54126822 341.29826141 -131.56976128 346.91226959 C-131.59597399 352.19505574 -131.59812899 357.47731977 -131.58210564 362.76014137 C-131.58029369 364.69425154 -131.58695883 366.62839194 -131.60292435 368.56243706 C-131.86479294 384.15191363 -131.86479294 384.15191363 -124.16591549 397.29628372 C-119.56333518 401.62240423 -115.05500649 403.62483926 -108.6870575 403.64837646 C-107.6399762 403.65690643 -106.5928949 403.6654364 -105.51408386 403.67422485 C-104.37578629 403.67331848 -103.23748871 403.67241211 -102.06469727 403.67147827 C-100.85762115 403.6781955 -99.65054504 403.68491272 -98.40689087 403.6918335 C-95.10295905 403.70756157 -91.79927864 403.71418768 -88.49532676 403.71546507 C-86.42832414 403.71688903 -84.36134768 403.72116329 -82.29435158 403.7264595 C-75.07504231 403.74495136 -67.85580678 403.75313131 -60.63647461 403.7515564 C-53.9204909 403.75035571 -47.20482892 403.77144567 -40.48892659 403.80304372 C-34.71208782 403.82924917 -28.93535385 403.83992189 -23.15845615 403.83864558 C-19.71301726 403.83813713 -16.26786434 403.84375474 -12.82248497 403.86500168 C-8.97601285 403.88807529 -5.12997719 403.87883704 -1.28344727 403.86679077 C-0.15122238 403.87802979 0.9810025 403.8892688 2.14753723 403.90084839 C10.24949817 403.83645754 15.50081238 402.26030224 21.77001953 397.13095093 C26.76959283 391.02036134 28.61877677 385.53583493 28.53468323 377.70361328 C28.54510152 376.44825132 28.54510152 376.44825132 28.55573028 375.16752851 C28.57392603 372.3824357 28.56375684 369.59820189 28.5534668 366.81307983 C28.56052908 364.8084398 28.56927539 362.8038051 28.57957458 360.79917908 C28.60204488 355.36724877 28.59913407 349.93561018 28.59025311 344.50365114 C28.58513649 339.96347756 28.59244138 335.42335848 28.59972519 330.88319051 C28.61671712 320.16917923 28.61316587 309.45531039 28.59643555 298.74130249 C28.57951794 287.70081667 28.59534561 276.66072634 28.62765843 265.62028372 C28.65437973 256.12956912 28.66162335 246.63897744 28.65314335 237.148229 C28.64822121 231.48502791 28.6503912 225.82206469 28.67093086 220.15889359 C28.68932748 214.83172206 28.68328028 209.50511791 28.65873146 204.17797661 C28.65373608 202.22775364 28.6571801 200.27748714 28.66987991 198.32729912 C28.97992579 184.05650459 28.97992579 184.05650459 23.02001953 171.38095093 C20.78815066 169.09465145 20.78815066 169.09465145 18.33251953 167.81845093 C17.18203125 167.13589233 17.18203125 167.13589233 16.00830078 166.43954468 C12.70165814 164.67903357 10.81965306 164.25134933 7.04989624 164.23377991 C5.47283905 164.22304695 5.47283905 164.22304695 3.86392212 164.21209717 C2.70548798 164.20940826 1.54705383 164.20671936 0.35351562 164.20394897 C-0.86287598 164.19737778 -2.07926758 164.19080658 -3.33251953 164.18403625 C-7.37386315 164.16426268 -11.415167 164.15262962 -15.45654297 164.14266968 C-16.84874873 164.13862187 -18.24095429 164.13450494 -19.63315964 164.1303196 C-26.17708491 164.11126174 -32.72099889 164.09703465 -39.26494658 164.08870763 C-46.8107068 164.07894688 -54.35617277 164.05266062 -61.90182936 164.01220673 C-67.73804232 163.98199557 -73.57417122 163.96723384 -79.41046083 163.96392661 C-82.89396806 163.96158084 -86.37716116 163.9526836 -89.86058426 163.92746544 C-93.75285374 163.89974431 -97.64474012 163.90403116 -101.53710938 163.91098022 C-103.25654251 163.89176514 -103.25654251 163.89176514 -105.01071167 163.87216187 C-113.49982777 163.92734056 -120.13624352 165.44271886 -125.85498047 172.25595093 Z M261.58251953 215.25595093 C259.34787999 219.72523001 258.89598786 223.6745504 258.87957764 228.62918091 C258.87386749 229.66640289 258.86815735 230.70362488 258.86227417 231.77227783 C258.86115631 232.89965363 258.86003845 234.02702942 258.85888672 235.18856812 C258.85392181 236.38428436 258.84895691 237.58000061 258.84384155 238.81195068 C258.83175733 242.08488759 258.82428109 245.35778882 258.81983089 248.63074398 C258.81689287 250.67898518 258.81278669 252.72722088 258.80832672 254.77545929 C258.79466282 261.19390484 258.78499096 267.61233769 258.78112483 274.03079677 C258.77664775 281.42138341 258.75911162 288.81178476 258.73012424 296.20231509 C258.70845453 301.92735376 258.69841772 307.6523405 258.69708371 313.37741971 C258.69603939 316.79098986 258.69021169 320.20438559 258.6722641 323.61791229 C258.65516654 327.43066862 258.65709332 331.24297626 258.66357422 335.05575562 C258.65435944 336.17503448 258.64514465 337.29431335 258.63565063 338.44750977 C258.67548391 345.94689745 258.98354075 353.34447214 264.52001953 358.88095093 C268.64084906 361.35344864 271.7796546 361.51480116 276.50756836 361.54208374 C277.16161148 361.54704865 277.8156546 361.55201355 278.48951721 361.55712891 C280.65203914 361.57172642 282.81448769 361.57854889 284.97705078 361.58407593 C286.48296612 361.5898299 287.98888144 361.5955876 289.49479675 361.60134888 C292.65302878 361.61185237 295.81123539 361.61769912 298.96948242 361.6211853 C303.00792645 361.62666501 307.04603246 361.6506843 311.08437061 361.67915726 C314.19598863 361.69782198 317.30752591 361.70299129 320.41919518 361.70452118 C321.9074863 361.70754021 323.39577625 361.71554338 324.88401222 361.72870636 C326.9710286 361.74584591 329.05722806 361.74386784 331.14428711 361.73739624 C332.32992752 361.74104187 333.51556793 361.7446875 334.73713684 361.7484436 C339.70808469 361.19198542 342.94936749 359.53841259 346.33251953 355.88095093 C348.82593173 352.18700693 349.14772943 349.43848571 349.16719055 345.08729553 C349.17434586 343.98958832 349.18150116 342.8918811 349.18887329 341.76091003 C349.19156219 340.55617538 349.1942511 339.35144073 349.19702148 338.11019897 C349.20359268 336.84168091 349.21016388 335.57316284 349.2169342 334.26620483 C349.23795498 330.05837261 349.24833417 325.8505401 349.25830078 321.64266968 C349.26234897 320.19314874 349.26646591 318.74362799 349.27065086 317.29410744 C349.28969755 310.48428946 349.30393012 303.67448229 349.31226283 296.8646428 C349.32203614 289.00758542 349.34835999 281.15080969 349.38876373 273.29385155 C349.41893389 267.21816129 349.43373252 261.14255173 349.43704385 255.06678802 C349.43939318 251.43916529 349.44833794 247.81184365 349.47350502 244.18430138 C349.50113822 240.13598295 349.49695192 236.08829323 349.48999023 232.03988647 C349.50280029 230.84122452 349.51561035 229.64256256 349.52880859 228.40757751 C349.48920133 222.0980461 349.32227118 218.14813984 345.02001953 213.38095093 C340.60543047 209.38022959 336.53216885 209.25516074 330.72607422 209.21981812 C329.450849 209.21021057 328.17562378 209.20060303 326.86175537 209.19070435 C325.47180359 209.18585524 324.08184971 209.18157669 322.69189453 209.17782593 C321.25946045 209.17206865 319.82702637 209.166311 318.39459229 209.16055298 C315.39196414 209.15005859 312.38936264 209.14420608 309.38671875 209.14071655 C305.55587772 209.13524262 301.72539403 209.11123193 297.89466476 209.0827446 C294.9348043 209.06403586 291.9750284 209.05890821 289.01511383 209.05738068 C287.60383405 209.05437091 286.19255515 209.04639954 284.78133392 209.0331955 C271.88777273 208.57959163 271.88777273 208.57959163 261.58251953 215.25595093 Z M45.02001953 241.38095093 C45.02001953 251.94095093 45.02001953 262.50095093 45.02001953 273.38095093 C110.36001953 273.38095093 175.70001953 273.38095093 243.02001953 273.38095093 C243.02001953 262.82095093 243.02001953 252.26095093 243.02001953 241.38095093 C177.68001953 241.38095093 112.34001953 241.38095093 45.02001953 241.38095093 Z M116.02001953 289.38095093 C116.02001953 300.93095093 116.02001953 312.48095093 116.02001953 324.38095093 C133.51001953 324.38095093 151.00001953 324.38095093 169.02001953 324.38095093 C169.02001953 312.83095093 169.02001953 301.28095093 169.02001953 289.38095093 C151.53001953 289.38095093 134.04001953 289.38095093 116.02001953 289.38095093 Z " transform="matrix(1, 0, 0, 1, 146.97998046875, 45.619049072265625)" style="fill: rgb(255, 255, 255);" id="object-0"/></svg>