<?xml version="1.0" encoding="utf-8"?>
<svg version="1.1" xmlns="http://www.w3.org/2000/svg" width="512" height="512" xmlns:bx="https://boxy-svg.com" viewBox="0 0 512 512"><defs><bx:export><bx:file format="svg"/></bx:export></defs><path d="M0 0 C1.61220655 1.49135534 3.21662931 2.9911768 4.8125 4.5 C5.56144531 5.19609375 6.31039062 5.8921875 7.08203125 6.609375 C32.95373884 31.43896477 46.39212665 67.04662098 47.94140625 102.4453125 C48.66653159 141.02198033 34.20326521 176.58063851 7.8125 204.5 C7.06613281 205.31082031 6.31976563 206.12164062 5.55078125 206.95703125 C-19.42346144 233.16966614 -55.19268144 246.82055366 -91.00463867 247.78540039 C-130.23967729 248.23396248 -165.19192342 233.22711662 -193.8515625 206.83984375 C-198.00227287 202.68219239 -201.61558365 198.15648004 -205.1875 193.5 C-205.85523438 192.64792969 -206.52296875 191.79585937 -207.2109375 190.91796875 C-229.71639044 161.25168988 -238.8371964 124.22621746 -234.36743164 87.39697266 C-230.45353625 59.2013223 -218.85094744 33.97920933 -200.1875 12.5 C-199.65511719 11.84644531 -199.12273437 11.19289062 -198.57421875 10.51953125 C-194.86396699 5.98922385 -190.68688749 2.23473309 -186.1875 -1.5 C-185.43597656 -2.139375 -184.68445313 -2.77875 -183.91015625 -3.4375 C-130.75605631 -47.54592653 -51.42342886 -45.36898846 0 0 Z M-119.1875 -16.875 C-120.0134668 -16.69678711 -120.83943359 -16.51857422 -121.69042969 -16.33496094 C-141.78491991 -11.77609579 -161.7235867 -2.40143381 -176.1875 12.5 C-175.76863525 12.91362793 -175.34977051 13.32725586 -174.91821289 13.75341797 C-173.02620591 15.62466831 -171.13806815 17.49977585 -169.25 19.375 C-168.59064453 20.02597656 -167.93128906 20.67695313 -167.25195312 21.34765625 C-166.62353516 21.97285156 -165.99511719 22.59804687 -165.34765625 23.2421875 C-164.76636963 23.8182373 -164.18508301 24.39428711 -163.58618164 24.98779297 C-161.34305644 27.41298366 -161.18467638 28.53882481 -160.9375 31.9375 C-161.1875 35.5 -161.1875 35.5 -162.1875 37.4375 C-165.48822062 39.19100783 -168.61759041 39.31574323 -172.1875 38.5 C-175.27599843 36.38398299 -177.68137861 33.76520352 -180.1875 31 C-180.86683594 30.28457031 -181.54617187 29.56914062 -182.24609375 28.83203125 C-183.91281071 27.07141474 -185.55799874 25.29499749 -187.1875 23.5 C-207.60461845 43.35388759 -216.24901782 70.87826753 -219.1875 98.5 C-218.07507935 98.50616333 -218.07507935 98.50616333 -216.94018555 98.51245117 C-213.5843092 98.54531841 -210.23026512 98.61595525 -206.875 98.6875 C-205.70775391 98.69330078 -204.54050781 98.69910156 -203.33789062 98.70507812 C-202.21962891 98.73408203 -201.10136719 98.76308594 -199.94921875 98.79296875 C-198.91756592 98.8086792 -197.88591309 98.82438965 -196.82299805 98.84057617 C-194.1875 99.5 -194.1875 99.5 -192.32739258 101.84887695 C-190.85343549 105.27695578 -190.9658427 106.98773525 -192.1875 110.5 C-196.78859836 114.49142901 -202.22124045 114.05166616 -208 114.1875 C-208.97904297 114.22166016 -209.95808594 114.25582031 -210.96679688 114.29101562 C-213.37358345 114.37319858 -215.78001945 114.44244433 -218.1875 114.5 C-218.34461383 120.63348221 -217.95263974 126.09456675 -216.5625 132.0625 C-216.38356201 132.83843506 -216.20462402 133.61437012 -216.02026367 134.41381836 C-211.87957649 151.57208557 -204.47663672 167.95825581 -193.8125 182.0625 C-193.39581055 182.61703857 -192.97912109 183.17157715 -192.54980469 183.74291992 C-191.2515651 185.42975424 -191.2515651 185.42975424 -189.1875 187.5 C-186.23801274 187.82546697 -186.23801274 187.82546697 -184.6887207 186.21484375 C-184.16882568 185.62832031 -183.64893066 185.04179687 -183.11328125 184.4375 C-182.52740234 183.80585938 -181.94152344 183.17421875 -181.33789062 182.5234375 C-180.12142063 181.18415704 -178.91545714 179.83525093 -177.72070312 178.4765625 C-173.27754801 173.73848632 -173.27754801 173.73848632 -170.01708984 173.02514648 C-167.12071063 172.98621841 -164.76644466 173.19243565 -162.1875 174.5625 C-160.4849518 177.86118714 -160.58546217 179.82756921 -161.1875 183.5 C-163.1769282 186.51428516 -165.6257905 188.96701995 -168.1875 191.5 C-168.92871094 192.25410156 -169.66992188 193.00820313 -170.43359375 193.78515625 C-172.33547487 195.70737835 -174.25298615 197.61070855 -176.1875 199.5 C-160.72847752 216.5582317 -134.010326 228.52429267 -111.1875 230.5 C-108.18667046 230.54706685 -105.18839069 230.53668571 -102.1875 230.5 C-102.17291748 229.85450195 -102.15833496 229.20900391 -102.14331055 228.54394531 C-102.0687213 225.61203427 -101.9720976 222.68124835 -101.875 219.75 C-101.85244141 218.73421875 -101.82988281 217.7184375 -101.80664062 216.671875 C-101.7534668 215.20234375 -101.7534668 215.20234375 -101.69921875 213.703125 C-101.67303467 212.80239258 -101.64685059 211.90166016 -101.61987305 210.97363281 C-101.10733875 208.04139254 -100.2271605 206.64573856 -98.1875 204.5 C-94.67956816 203.35610918 -92.94196162 203.17282809 -89.53637695 204.6496582 C-87.1875 206.5 -87.1875 206.5 -86.52807617 209.04370117 C-86.51236572 210.03345947 -86.49665527 211.02321777 -86.48046875 212.04296875 C-86.45146484 213.11611328 -86.42246094 214.18925781 -86.39257812 215.29492188 C-86.38677734 216.41447266 -86.38097656 217.53402344 -86.375 218.6875 C-86.34986328 219.81865234 -86.32472656 220.94980469 -86.29882812 222.11523438 C-86.23985616 224.9105053 -86.20364967 227.70420675 -86.1875 230.5 C-79.12870956 230.7882677 -72.84293986 230.09166889 -66 228.375 C-65.08581299 228.1490918 -64.17162598 227.92318359 -63.22973633 227.69042969 C-43.6013143 222.65811877 -26.77722316 213.28677636 -11.1875 200.5 C-15.29396454 195.55118375 -19.61649235 191.08683122 -24.33203125 186.7109375 C-26.42538047 184.21654664 -26.93587064 182.71875895 -27.1875 179.5 C-26.375 176.75 -26.375 176.75 -25.1875 174.5 C-21.92702371 172.86976186 -19.80948965 173.0326465 -16.1875 173.5 C-13.16652622 175.47780319 -10.71961362 177.93916675 -8.1875 180.5 C-7.43339844 181.24121094 -6.67929687 181.98242188 -5.90234375 182.74609375 C-3.98012165 184.64797487 -2.07679145 186.56548615 -0.1875 188.5 C19.22644368 169.90205395 29.68348285 140.81777905 30.8125 114.5 C30.20253174 114.48541748 29.59256348 114.47083496 28.96411133 114.45581055 C26.18378936 114.38105225 23.40463176 114.28448518 20.625 114.1875 C19.18543945 114.15366211 19.18543945 114.15366211 17.71679688 114.11914062 C8.50086072 113.76836105 8.50086072 113.76836105 4.8125 110.5 C3.76603176 106.90276541 3.17886684 104.69994698 4.96606445 101.31542969 C7.44664787 98.87650091 8.91403798 98.96345951 12.35546875 98.890625 C13.42861328 98.85839844 14.50175781 98.82617188 15.60742188 98.79296875 C16.72697266 98.77878906 17.84652344 98.76460938 19 98.75 C20.69672852 98.70552734 20.69672852 98.70552734 22.42773438 98.66015625 C25.22272833 98.58939691 28.01688528 98.53673024 30.8125 98.5 C31.39407688 70.85979361 17.85594432 44.48053176 0.8125 23.5 C-2.4257358 26.18704673 -5.5281147 28.76402549 -8.33984375 31.90234375 C-13.9943654 38.19287487 -13.9943654 38.19287487 -17.69140625 39.14453125 C-20.01737925 39.18559979 -21.94612837 39.12076043 -24.1875 38.5 C-26.61270546 36.07479454 -26.87314441 34.87932259 -27.1875 31.5 C-25.87074381 26.09939128 -21.93042412 22.90606863 -18.0625 19.1875 C-17.40378906 18.54232422 -16.74507812 17.89714844 -16.06640625 17.23242188 C-14.44669856 15.64792522 -12.82039995 14.07087901 -11.1875 12.5 C-25.82271717 -2.77734736 -47.55349172 -12.37198795 -67.9375 -16.8125 C-68.71778564 -16.98426758 -69.49807129 -17.15603516 -70.30200195 -17.33300781 C-75.68271048 -18.42383815 -80.69896918 -18.64759993 -86.1875 -18.5 C-86.20151855 -17.4330188 -86.20151855 -17.4330188 -86.21582031 -16.34448242 C-86.26946888 -13.1247794 -86.35312635 -9.90653817 -86.4375 -6.6875 C-86.45167969 -5.56794922 -86.46585938 -4.44839844 -86.48046875 -3.29492188 C-86.51269531 -2.22177734 -86.54492188 -1.14863281 -86.578125 -0.04296875 C-86.59907227 0.94678955 -86.62001953 1.93654785 -86.64160156 2.95629883 C-87.1875 5.5 -87.1875 5.5 -89.00292969 7.3503418 C-92.35622277 9.11505538 -94.6129381 8.47488052 -98.1875 7.5 C-101.05127661 4.55022285 -101.5815404 2.34501038 -101.69921875 -1.703125 C-101.73466797 -2.6828125 -101.77011719 -3.6625 -101.80664062 -4.671875 C-101.82919922 -5.68765625 -101.85175781 -6.7034375 -101.875 -7.75 C-101.90916016 -8.78125 -101.94332031 -9.8125 -101.97851562 -10.875 C-102.06088093 -13.41655812 -102.13006834 -15.95777626 -102.1875 -18.5 C-108.0994129 -18.67467015 -113.41338342 -18.12274564 -119.1875 -16.875 Z " transform="translate(419.1875,168.5)" style="fill: rgb(255, 255, 255);"/><path d="M0 0 C1.31849442 -0.00960754 2.63698883 -0.01921509 3.99543762 -0.02911377 C5.43274766 -0.03396228 6.87005972 -0.03824098 8.30737305 -0.04199219 C9.78704326 -0.04774855 11.26671347 -0.05350622 12.74638367 -0.05926514 C15.84736477 -0.06975943 18.94832006 -0.07561226 22.04931641 -0.07910156 C26.01028683 -0.08458093 29.9709126 -0.10860337 33.93177509 -0.13707352 C36.98853023 -0.15575749 40.04520332 -0.16090856 43.10201073 -0.16243744 C44.56156484 -0.16545187 46.02111793 -0.17343929 47.48061562 -0.18662262 C61.79929628 -0.30672177 61.79929628 -0.30672177 67.5065918 3.16113281 C72.01365052 8.02401196 72.65094905 11.13720033 72.60424805 17.57519531 C72.60212563 18.66965469 72.60212563 18.66965469 72.59996033 19.78622437 C72.5943571 22.11956866 72.58180414 24.45281745 72.5690918 26.78613281 C72.56407721 28.36686059 72.55951423 29.94758988 72.55541992 31.52832031 C72.54438664 35.40596135 72.52711991 39.28353088 72.5065918 43.16113281 C73.28365479 43.34651611 74.06071777 43.53189941 74.86132812 43.72290039 C102.71350183 50.50170221 128.23374052 63.96666356 149.5065918 83.16113281 C150.90148401 84.34973815 152.29719737 85.53738119 153.6940918 86.72363281 C180.55768395 110.55242585 198.9630529 142.25027227 208.3190918 176.78613281 C208.59317871 177.78459229 208.59317871 177.78459229 208.87280273 178.80322266 C212.49662368 193.10090438 214.01226937 207.49333598 213.89770508 222.21337891 C213.88159021 224.66137337 213.89769598 227.10771803 213.91674805 229.55566406 C213.93658534 244.21487754 212.12621179 258.70098822 208.1940918 272.84863281 C207.98244385 273.6264209 207.7707959 274.40420898 207.55273438 275.20556641 C205.35569562 283.05224757 202.66238553 290.65111928 199.5065918 298.16113281 C199.22477051 298.83321777 198.94294922 299.50530273 198.65258789 300.19775391 C191.66634594 316.54270539 182.33386712 331.86623938 170.5065918 345.16113281 C169.77956055 345.99644531 169.0525293 346.83175781 168.3034668 347.69238281 C166.074087 350.21797392 163.80032049 352.69392884 161.5065918 355.16113281 C160.66741211 356.08925781 159.82823242 357.01738281 158.96362305 357.97363281 C157.68551758 359.33488281 157.68551758 359.33488281 156.3815918 360.72363281 C155.61588867 361.54992187 154.85018555 362.37621094 154.0612793 363.22753906 C150.85405109 365.6550283 148.48250997 365.95187396 144.5065918 366.16113281 C141.10851154 365.05905273 140.55927262 364.24015405 138.5065918 361.16113281 C137.9440918 358.47363281 137.9440918 358.47363281 138.5065918 355.16113281 C141.02765845 351.42680283 144.26526744 348.3421987 147.51831055 345.24707031 C175.56973793 318.38821748 194.79396575 277.40579567 196.68359375 238.51855469 C197.068388 214.10021667 195.91288926 191.35856952 187.5065918 168.16113281 C186.86270508 166.35708984 186.86270508 166.35708984 186.20581055 164.51660156 C179.9703952 148.02348885 171.56033497 132.8952577 160.5065918 119.16113281 C160.02963867 118.56461914 159.55268555 117.96810547 159.0612793 117.35351562 C143.94520129 98.63019172 125.87550414 84.1862991 104.5065918 73.16113281 C103.88816406 72.84160645 103.26973633 72.52208008 102.63256836 72.19287109 C82.40934975 61.90924079 59.40085629 55.17806308 36.6237793 54.92285156 C35.89546906 54.91305771 35.16715881 54.90326385 34.41677856 54.89317322 C18.05547375 54.71850626 2.43968873 54.99759827 -13.4934082 59.16113281 C-14.32646484 59.37012207 -15.15952148 59.57911133 -16.01782227 59.79443359 C-40.56124218 66.07856585 -63.36645598 77.50318259 -82.4934082 94.16113281 C-90.29919573 100.88554532 -90.29919573 100.88554532 -94.7434082 101.91113281 C-98.5769968 100.86560865 -100.14391222 99.33986267 -102.4934082 96.16113281 C-103.2434082 93.34863281 -103.2434082 93.34863281 -102.4934082 90.16113281 C-98.34945944 84.4146533 -93.13579138 79.93185572 -87.4934082 75.72363281 C-86.74994141 75.16506592 -86.00647461 74.60649902 -85.24047852 74.03100586 C-65.98127893 59.77518071 -43.81457865 48.85915562 -20.4934082 43.16113281 C-20.47358887 42.31929443 -20.45376953 41.47745605 -20.43334961 40.61010742 C-20.35481025 37.45833605 -20.26810326 34.30692026 -20.17602539 31.15551758 C-20.13796742 29.79688019 -20.10307599 28.43814997 -20.0715332 27.0793457 C-20.02537606 25.11550362 -19.96652323 23.15197319 -19.9074707 21.18847656 C-19.86033936 19.42105103 -19.86033936 19.42105103 -19.81225586 17.61791992 C-19.39762668 13.12271734 -18.79933883 8.77585491 -15.9074707 5.20019531 C-15.31708008 4.73355469 -14.72668945 4.26691406 -14.1184082 3.78613281 C-13.53317383 3.30402344 -12.94793945 2.82191406 -12.3449707 2.32519531 C-8.45661626 -0.11938195 -4.50155005 0.02649131 0 0 Z M-3.4934082 16.16113281 C-3.4934082 24.08113281 -3.4934082 32.00113281 -3.4934082 40.16113281 C-0.51567383 39.90976563 -0.51567383 39.90976563 2.5222168 39.65332031 C20.82191594 38.23781141 38.20247939 38.3021214 56.5065918 40.16113281 C56.5065918 32.24113281 56.5065918 24.32113281 56.5065918 16.16113281 C36.7065918 16.16113281 16.9065918 16.16113281 -3.4934082 16.16113281 Z " transform="translate(298.493408203125,49.8388671875)" style="fill: rgb(255, 255, 255);"/><path d="M0 0 C4.75937031 1.10485382 4.75937031 1.10485382 6.5 3.8125 C7.4375 6 7.4375 6 7.5 8.8125 C5.61400461 13.44890534 3.23104077 17.26464042 0.3125 21.3125 C-25.56603216 57.52023169 -33.83338994 102.74868229 -27.12548828 146.24072266 C-21.19148865 181.19018228 -4.46192272 211.06485341 19.5 236.8125 C20.15097656 237.52921875 20.80195313 238.2459375 21.47265625 238.984375 C50.22992376 269.34850332 94.08611109 286.56900203 135.5 287.8125 C136.34304688 287.85246094 137.18609375 287.89242188 138.0546875 287.93359375 C170.39479101 288.78995163 201.96296796 279.1330989 229.625 262.8125 C233.07330952 260.88511787 235.4975558 259.90285359 239.5 260.8125 C242.82274404 263.26844125 244.27618008 264.7381644 245.125 268.8125 C244.09324805 273.76490935 240.57921387 276.10139009 236.4765625 278.8046875 C189.97842513 304.92601875 138.69742995 310.98679134 87.11132812 297.17285156 C63.2256906 290.45048437 40.25201893 278.04900419 21.5 261.8125 C20.71882813 261.14089844 19.93765625 260.46929687 19.1328125 259.77734375 C16.54462599 257.49924348 14.01543189 255.17071739 11.5 252.8125 C10.75943359 252.12293213 10.75943359 252.12293213 10.00390625 251.41943359 C-25.32567624 218.25940464 -44.74804912 171.17109412 -46.72265625 123.0859375 C-47.80686171 81.60347711 -35.5361026 33.01645642 -6.5 1.8125 C-3.5 -0.1875 -3.5 -0.1875 0 0 Z " transform="translate(184.5,157.1875)" style="fill: rgb(255, 255, 255);"/><path d="M0 0 C0.97941559 -0.00379669 1.95883118 -0.00759338 2.96792603 -0.01150513 C6.20086836 -0.01890624 9.43290921 0.00246486 12.66577148 0.02490234 C14.91348668 0.02728695 17.16120389 0.02819206 19.40892029 0.02767944 C24.11730443 0.03080662 28.8253839 0.04736709 33.53369141 0.07421875 C39.57207969 0.10821777 45.61013351 0.1158467 51.6486063 0.11432838 C56.28882547 0.11487193 60.92897137 0.12583626 65.56916618 0.14033127 C67.79593285 0.14669968 70.02270783 0.15063826 72.24948311 0.15211868 C75.35917463 0.15645005 78.46850991 0.17394729 81.578125 0.1953125 C82.96140739 0.19395294 82.96140739 0.19395294 84.37263489 0.19256592 C85.64478851 0.20536087 85.64478851 0.20536087 86.94264221 0.21841431 C88.04458341 0.22344184 88.04458341 0.22344184 89.16878605 0.22857094 C92.35300984 0.62709695 94.56023965 1.63196409 96.53686523 4.17333984 C97.55359352 7.59324408 97.09717672 10.05693758 96.22436523 13.48583984 C94.43571651 15.58548454 92.95969316 16.38481845 90.22471619 16.76055717 C87.60485641 16.88570736 85.00152541 16.90242064 82.37866211 16.88989258 C81.37988541 16.89675583 80.3811087 16.90361908 79.35206604 16.91069031 C76.04893805 16.9289994 72.7462831 16.9251152 69.44311523 16.91943359 C67.14912765 16.92399308 64.85514144 16.92929796 62.56115723 16.93531799 C57.75271048 16.94425695 52.94442976 16.94181657 48.13598633 16.93188477 C41.96852158 16.92038836 35.80162879 16.94061339 29.6342392 16.9698019 C24.89707794 16.98813041 20.16005463 16.9878782 15.42286682 16.98216438 C13.14863787 16.98201079 10.87439979 16.98808635 8.60020447 17.00045586 C5.4231251 17.01530214 2.24711386 17.00473538 -0.92993164 16.98754883 C-1.87239243 16.9972168 -2.81485321 17.00688477 -3.78587341 17.0168457 C-10.15483917 16.94455228 -10.15483917 16.94455228 -13.35559082 14.57948303 C-14.88008346 12.33184581 -15.34339527 11.17921748 -15.33813477 8.48583984 C-15.36004883 7.82583984 -15.38196289 7.16583984 -15.40454102 6.48583984 C-13.17570942 -0.60212151 -6.07724349 -0.07422831 0 0 Z " transform="translate(14.775634765625,267.51416015625)" style="fill: rgb(255, 255, 255);"/><path d="M0 0 C2.18847656 1.47558594 2.18847656 1.47558594 4 4 C4.41779971 7.01727626 4.60479843 9.6838672 4.609375 12.703125 C4.63417938 13.95980988 4.63417938 13.95980988 4.65948486 15.24188232 C4.70797499 17.91132937 4.72933745 20.58020674 4.75 23.25 C4.77815893 25.06252868 4.80808625 26.8750308 4.83984375 28.6875 C4.91373394 33.12495309 4.96330214 37.56208977 5 42 C5.91523438 41.07316406 6.83046875 40.14632812 7.7734375 39.19140625 C8.9738261 37.98163961 10.17435417 36.77201135 11.375 35.5625 C11.97828125 34.95083984 12.5815625 34.33917969 13.203125 33.70898438 C13.78320312 33.12568359 14.36328125 32.54238281 14.9609375 31.94140625 C15.49509277 31.40201416 16.02924805 30.86262207 16.57958984 30.30688477 C19.48886672 27.63013002 22.2282635 27.71593913 26.09375 27.79296875 C28 28 28 28 29.9375 29.0625 C31.71181202 32.29801016 32.12234499 34.26847771 32 38 C30.83227539 39.74438477 30.83227539 39.74438477 29.16015625 41.56640625 C28.52110352 42.26354736 27.88205078 42.96068848 27.22363281 43.67895508 C22.98552087 48.10272871 18.66396463 52.4379563 14.3125 56.75 C13.36629965 57.69116823 12.42033478 58.63257327 11.47460938 59.57421875 C9.74114954 61.29901747 8.00665758 63.02278003 6.27075195 64.74511719 C4.78702277 66.21847734 3.33542108 67.72510879 1.92260742 69.26660156 C0 71 0 71 -3.5 71.4375 C-7.09920025 70.98759997 -8.51770265 70.57777032 -11 68 C-12.04724 64.85828 -12.13919002 62.62119651 -12.16113281 59.32275391 C-12.17074036 58.15789459 -12.1803479 56.99303528 -12.19024658 55.7928772 C-12.19449646 54.53349335 -12.19874634 53.2741095 -12.203125 51.9765625 C-12.20882507 50.68309906 -12.21452515 49.38963562 -12.22039795 48.05697632 C-12.23089673 45.31825366 -12.23674675 42.57956026 -12.24023438 39.84082031 C-12.24571738 36.33809477 -12.26974542 32.83575828 -12.29820633 29.33315468 C-12.32135257 25.98513144 -12.32328351 22.6371616 -12.328125 19.2890625 C-12.3404718 18.03372711 -12.3528186 16.77839172 -12.36553955 15.48501587 C-12.36253845 14.31385223 -12.35953735 13.1426886 -12.35644531 11.93603516 C-12.36009094 10.90805817 -12.36373657 9.88008118 -12.36749268 8.82095337 C-11.93988047 5.53850949 -10.94328316 3.6571672 -9 1 C-5.90826248 -0.54586876 -3.40570448 -0.29359521 0 0 Z " transform="translate(329,209)" style="fill: rgb(255, 255, 255);"/><path d="M0 0 C0.802099 -0.00861557 1.604198 -0.01723114 2.43060303 -0.02610779 C5.07979685 -0.04879469 7.72793511 -0.04202391 10.37719727 -0.03295898 C12.22038589 -0.03819365 14.06357183 -0.04446956 15.90675354 -0.05174255 C19.76950689 -0.06215198 23.63189199 -0.05757799 27.49462891 -0.04296875 C32.44255868 -0.02578632 37.38932663 -0.04926631 42.33712673 -0.08445835 C46.14361758 -0.10642994 49.94983037 -0.10499138 53.75636482 -0.09669304 C55.58040707 -0.09587326 57.40446967 -0.10274171 59.22845268 -0.11746407 C61.78062984 -0.13490467 64.33071898 -0.12037314 66.8828125 -0.09765625 C68.01058861 -0.11519455 68.01058861 -0.11519455 69.16114807 -0.13308716 C73.08374828 -0.06212399 74.86833262 0.42750347 78.0138092 2.84632874 C80.00610352 5.53344727 80.00610352 5.53344727 80.00610352 9.15844727 C79.06066593 12.34929913 78.64238904 13.63532169 76.00610352 15.53344727 C72.95605702 17.05847051 69.77027272 16.69832458 66.42285156 16.71044922 C65.24940186 16.72030602 65.24940186 16.72030602 64.05224609 16.73036194 C61.45743722 16.75010941 58.86268627 16.76176071 56.26782227 16.77172852 C55.38225962 16.77580404 54.49669697 16.77987957 53.58429909 16.7840786 C48.89718483 16.80494551 44.2100999 16.81924454 39.52294922 16.82861328 C34.68055949 16.83967916 29.8386291 16.8740792 24.99640179 16.91378498 C21.27404422 16.93992515 17.55179652 16.94830279 13.82935524 16.95189476 C12.04436961 16.95676745 10.25938911 16.96840086 8.47449303 16.98693275 C5.97513776 17.01126948 3.47697644 17.01036955 0.97753906 17.00341797 C0.24124771 17.01622803 -0.49504364 17.02903809 -1.25364685 17.04223633 C-4.89120114 17.00539107 -6.86343995 16.61740997 -9.95280457 14.6290741 C-11.99389648 12.53344727 -11.99389648 12.53344727 -12.62280273 10.53344727 C-12.60088867 9.87344727 -12.57897461 9.21344727 -12.55639648 8.53344727 C-12.55768555 7.87344727 -12.55897461 7.21344727 -12.56030273 6.53344727 C-10.75954892 0.17492346 -5.72941734 -0.0495964 0 0 Z " transform="translate(41.993896484375,308.466552734375)" style="fill: rgb(255, 255, 255);"/><path d="M 43.505 224.263 C 44.28 224.259 45.054 224.256 45.852 224.253 C 48.413 224.243 50.975 224.241 53.537 224.24 C 55.317 224.237 57.096 224.233 58.876 224.23 C 62.608 224.224 66.339 224.222 70.071 224.223 C 74.854 224.223 79.636 224.209 84.419 224.192 C 88.095 224.181 91.771 224.179 95.447 224.179 C 97.211 224.178 98.974 224.174 100.738 224.166 C 103.203 224.156 105.669 224.159 108.134 224.165 C 108.863 224.159 109.592 224.154 110.343 224.148 C 114.009 224.171 116.808 224.309 119.884 226.408 C 121.981 229.104 121.88 230.501 121.697 233.97 C 120.608 238.576 120.608 238.576 117.884 240.408 C 115.147 240.709 112.635 240.828 109.896 240.812 C 108.676 240.822 108.676 240.822 107.432 240.833 C 104.74 240.851 102.049 240.847 99.357 240.842 C 97.488 240.846 95.618 240.851 93.749 240.857 C 89.829 240.866 85.909 240.864 81.989 240.854 C 76.964 240.843 71.939 240.863 66.914 240.892 C 63.053 240.91 59.192 240.91 55.33 240.904 C 53.478 240.904 51.625 240.91 49.772 240.923 C 47.182 240.937 44.592 240.927 42.002 240.91 C 40.852 240.924 40.852 240.924 39.68 240.939 C 36.153 240.89 34.243 240.683 31.408 238.504 C 28.845 234.979 29.409 232.683 29.884 228.408 C 33.106 223.652 38.305 224.259 43.505 224.263 Z" style="fill: rgb(255, 255, 255);"/><path d="M0 0 C0.67661682 -0.00817749 1.35323364 -0.01635498 2.050354 -0.02478027 C4.29283766 -0.04962378 6.53525812 -0.06614631 8.77783203 -0.08056641 C9.54328465 -0.08589008 10.30873726 -0.09121376 11.09738541 -0.09669876 C15.14792123 -0.12342419 19.19842628 -0.14280208 23.24902344 -0.15722656 C27.43475779 -0.17388499 31.61970638 -0.21867326 35.80514336 -0.26959801 C39.0221956 -0.30323363 42.23906033 -0.31479975 45.45627213 -0.32045364 C46.99928935 -0.32717506 48.54229384 -0.34242046 50.08514023 -0.36634445 C52.24491445 -0.3979273 54.40255599 -0.39804507 56.5625 -0.390625 C58.40544144 -0.40275528 58.40544144 -0.40275528 60.28561401 -0.41513062 C63.41064453 0.19287109 63.41064453 0.19287109 65.84255981 2.5027771 C67.41064453 5.19287109 67.41064453 5.19287109 67.34814453 8.81787109 C66.45275796 12.04126275 66.05957568 13.28564067 63.41064453 15.19287109 C60.6032154 16.59658566 58.25290665 16.34346691 55.11254883 16.36987305 C54.1439241 16.37972984 54.1439241 16.37972984 53.1557312 16.38978577 C51.01544073 16.40952057 48.87522046 16.42118205 46.73486328 16.43115234 C45.63820312 16.43726563 45.63820312 16.43726563 44.5193882 16.44350243 C40.64924018 16.4643646 36.77912764 16.47866527 32.90893555 16.48803711 C28.91397978 16.49909813 24.91958156 16.53349328 20.92482281 16.57320881 C17.85098749 16.59937179 14.77728503 16.60772864 11.70334816 16.61131859 C10.23095754 16.61618594 8.75857291 16.62780434 7.28629112 16.64635658 C5.22272134 16.67074189 3.16059399 16.66978529 1.09692383 16.6628418 C-0.07618851 16.66870804 -1.24930084 16.67457428 -2.45796204 16.68061829 C-6.25532674 16.08913912 -7.9003494 14.89393043 -10.58935547 12.19287109 C-11.84545562 8.50307689 -11.9328836 6.9290028 -10.27685547 3.38037109 C-7.29861598 -0.48030973 -4.68468186 0.04909955 0 0 Z " transform="translate(64.58935546875,352.80712890625)" style="fill: rgb(255, 255, 255);"/><path d="M0 0 C1.28498383 -0.00637985 2.56996765 -0.0127597 3.89389038 -0.01933289 C5.29856326 -0.0208617 6.70323664 -0.02197559 8.10791016 -0.02270508 C9.54896071 -0.02591884 10.99001093 -0.02928301 12.43106079 -0.03279114 C15.45225785 -0.03877909 18.47342633 -0.0406314 21.49462891 -0.04003906 C25.36046491 -0.03993751 29.22611697 -0.05358407 33.09190941 -0.07081127 C36.06880531 -0.08194636 39.04565697 -0.0839578 42.02257156 -0.08342934 C43.44748188 -0.08460739 44.87239341 -0.08901939 46.29728317 -0.0967617 C48.29321669 -0.10659061 50.2892042 -0.10241182 52.28515625 -0.09765625 C53.4197226 -0.09908127 54.55428894 -0.10050629 55.72323608 -0.10197449 C58.82611638 0.14965447 60.99794914 0.75821309 63.77197266 2.14526367 C65.93916471 4.80499938 65.76732129 6.23363964 65.58447266 9.70776367 C64.51582853 14.22895037 64.51582853 14.22895037 61.77197266 16.14526367 C58.73596191 16.5262146 58.73596191 16.5262146 54.96142578 16.53344727 C53.92924171 16.5413327 53.92924171 16.5413327 52.87620544 16.54937744 C50.60164693 16.56258109 48.32778829 16.55383863 46.05322266 16.54370117 C44.47285833 16.54572182 42.89249492 16.54863318 41.31213379 16.55239868 C37.99999107 16.55682251 34.68809107 16.55038927 31.37597656 16.53637695 C27.12868176 16.51928481 22.88195564 16.52912571 18.6346817 16.54709435 C15.37131458 16.55793073 12.10808247 16.55448656 8.8447113 16.54671097 C7.27859937 16.54470855 5.71247522 16.54716972 4.14637756 16.55414963 C1.95809422 16.56176198 -0.22926596 16.55016427 -2.41748047 16.53344727 C-3.66307739 16.53106049 -4.90867432 16.52867371 -6.1920166 16.5262146 C-9.22802734 16.14526367 -9.22802734 16.14526367 -11.09509277 14.8319397 C-13.01614985 11.9719326 -13.16942609 9.54413666 -13.22802734 6.14526367 C-9.71181614 0.36863098 -6.41944096 0.02159766 0 0 Z " transform="translate(66.22802734375,179.854736328125)" style="fill: rgb(255, 255, 255);"/></svg>