<?xml version="1.0" encoding="utf-8"?>
<svg xmlns="http://www.w3.org/2000/svg" viewBox="0 24 624 180" xmlns:bx="https://boxy-svg.com" width="604px" height="180px" preserveAspectRatio="none"><defs><bx:export><bx:file format="svg"/></bx:export></defs><path id="Selection #8" stroke="black" stroke-width="1" d="M 546 149.084 C 546 149.084 551.66 132.084 551.66 132.084 C 551.66 132.084 565.95 93.084 565.95 93.084 C 565.95 93.084 572.7 77.074 572.7 77.074 C 572.7 77.074 578 76.084 578 76.084 C 578 76.084 587 76.084 587 76.084 C 587 76.084 594.58 77.104 594.58 77.104 C 594.58 77.104 601.68 93.084 601.68 93.084 C 601.68 93.084 622 149.084 622 149.084 C 622 149.084 601 149.084 601 149.084 C 601 149.084 597 134.084 597 134.084 C 597 134.084 579 134.084 579 134.084 C 579 134.084 572.27 135.104 572.27 135.104 C 572.27 135.104 565.3 148.094 565.3 148.094 C 565.3 148.094 546 149.084 546 149.084 Z M 584 97.084 C 584 97.084 575 121.084 575 121.084 C 575 121.084 592 121.084 592 121.084 C 592 121.084 584 97.084 584 97.084 Z" style="fill: rgb(255, 255, 255);"/><path id="Selection #7" stroke="black" stroke-width="1" d="M 474 76.084 C 474 76.084 539 76.084 539 76.084 C 539 76.084 539 90.084 539 90.084 C 539 90.084 516 90.084 516 90.084 C 516 90.084 516 149.084 516 149.084 C 516 149.084 496 149.084 496 149.084 C 496 149.084 496 90.084 496 90.084 C 496 90.084 474 90.084 474 90.084 C 474 90.084 474 76.084 474 76.084 Z" style="fill: rgb(255, 255, 255);"/><path id="Selection #6" stroke="black" stroke-width="1" d="M 418 76.084 C 418 76.084 461 76.084 461 76.084 C 461 76.084 461 89.084 461 89.084 C 461 89.084 449 89.084 449 89.084 C 449 89.084 449 136.084 449 136.084 C 449 136.084 461 136.084 461 136.084 C 461 136.084 461 149.084 461 149.084 C 461 149.084 418 149.084 418 149.084 C 418 149.084 418 136.084 418 136.084 C 418 136.084 429 136.084 429 136.084 C 429 136.084 429 89.084 429 89.084 C 429 89.084 418 89.084 418 89.084 C 418 89.084 418 76.084 418 76.084 Z" style="fill: rgb(255, 255, 255);"/><path id="Selection #5" stroke="black" stroke-width="1" d="M 400 109.084 C 400 109.084 400 138.084 400 138.084 C 400 140.114 400.26 143.724 399.01 145.384 C 397.57 147.294 393.26 148.144 391 148.714 C 380.09 151.444 378.93 151.104 368 151.084 C 352.06 151.064 337.99 144.064 332.75 128.084 C 330.53 121.324 330.92 115.094 331 108.084 C 331.2 91.754 342.27 78.804 358 74.984 C 363.34 73.684 372.27 74.024 378 74.084 C 382.93 74.144 396.14 76.214 398.98 80.494 C 400.22 82.384 400 85.864 400 88.084 C 400 88.084 400 97.084 400 97.084 C 389.48 96.334 387.9 88.654 372 89.104 C 353.41 89.614 345.78 112.784 354.97 127.084 C 361.57 137.364 369.3 137.084 380 137.084 C 380 137.084 380 123.084 380 123.084 C 380 123.084 366 123.084 366 123.084 C 366 123.084 366 109.084 366 109.084 C 366 109.084 400 109.084 400 109.084 Z" style="fill: rgb(255, 255, 255);"/><path id="Selection #4" stroke="black" stroke-width="1" d="M 272 76.084 C 272 76.084 315 76.084 315 76.084 C 315 76.084 315 89.084 315 89.084 C 315 89.084 303 89.084 303 89.084 C 303 89.084 303 136.084 303 136.084 C 303 136.084 315 136.084 315 136.084 C 315 136.084 315 149.084 315 149.084 C 315 149.084 272 149.084 272 149.084 C 272 149.084 272 136.084 272 136.084 C 272 136.084 283 136.084 283 136.084 C 283 136.084 283 89.084 283 89.084 C 283 89.084 272 89.084 272 89.084 C 272 89.084 272 76.084 272 76.084 Z" style="fill: rgb(255, 255, 255);"/><path id="Selection #3" stroke="black" stroke-width="1" d="M 187 76.084 C 201.72 76.084 226.26 73.804 239 80.484 C 253.84 88.264 256.18 100.994 256 116.084 C 255.86 127.474 249.61 137.854 240 143.954 C 228.05 151.534 201.46 149.084 187 149.084 C 187 149.084 187 76.084 187 76.084 Z M 207 135.084 C 213.29 134.574 222.87 134.434 227.95 130.834 C 238.86 123.014 238.89 102.574 227.95 94.734 C 222.61 90.864 213.57 90.614 207 90.084 C 207 90.084 207 135.084 207 135.084 Z" style="fill: rgb(255, 255, 255);"/><path id="Selection #2" stroke-width="3" d="M 73.00,28.00 C 79.63,31.14 90.33,43.33 96.00,49.00 96.00,49.00 139.00,92.00 139.00,92.00 139.00,92.00 154.00,107.00 154.00,107.00 155.63,108.67 158.80,111.51 158.80,114.00 158.80,116.49 155.63,119.33 154.00,121.00 154.00,121.00 139.00,136.00 139.00,136.00 139.00,136.00 96.00,179.00 96.00,179.00 90.33,184.67 79.63,196.86 73.00,200.00 76.09,193.46 87.46,183.54 93.00,178.00 93.00,178.00 134.00,137.00 134.00,137.00 134.00,137.00 150.00,121.00 150.00,121.00 151.60,119.37 154.96,116.42 154.96,114.00 154.96,111.58 151.60,108.63 150.00,107.00 150.00,107.00 134.00,91.00 134.00,91.00 134.00,91.00 93.00,50.00 93.00,50.00 87.46,44.46 76.09,34.54 73.00,28.00 Z" style="fill: rgb(255, 255, 255); stroke: rgb(255, 255, 255);"/><path id="Selection #1" fill="#217dbc" stroke="black" stroke-width="1" d="M 73.00,48.00 C 73.00,48.00 92.00,66.00 92.00,66.00 92.00,66.00 122.00,96.00 122.00,96.00 122.00,96.00 133.98,108.00 133.98,108.00 133.98,108.00 137.80,114.00 137.80,114.00 137.80,114.00 133.98,120.00 133.98,120.00 133.98,120.00 122.00,132.00 122.00,132.00 122.00,132.00 92.00,162.00 92.00,162.00 92.00,162.00 73.00,180.00 73.00,180.00 73.00,175.64 72.54,157.89 73.60,155.00 74.22,153.32 75.01,152.34 76.15,151.00 76.15,151.00 102.00,125.00 102.00,125.00 104.15,122.85 110.96,116.93 110.96,114.00 110.96,111.07 104.15,105.15 102.00,103.00 102.00,103.00 76.15,77.00 76.15,77.00 75.01,75.66 74.22,74.68 73.60,73.00 72.54,70.11 73.00,52.36 73.00,48.00 Z"/><path id="Selection" stroke="black" stroke-width="1" d="M 72.00,42.34 C 76.95,42.56 79.62,46.62 83.00,50.00 83.00,50.00 105.00,72.00 105.00,72.00 105.00,72.00 134.00,101.00 134.00,101.00 136.26,103.26 144.01,110.37 144.66,113.00 145.28,115.48 143.45,117.31 141.94,119.00 141.94,119.00 130.00,131.00 130.00,131.00 130.00,131.00 90.00,171.00 90.00,171.00 87.30,173.70 76.82,184.96 74.00,185.66 71.52,186.28 69.69,184.45 68.00,182.94 68.00,182.94 56.00,171.00 56.00,171.00 56.00,171.00 15.00,130.00 15.00,130.00 12.22,127.22 1.20,117.41 1.20,114.00 1.20,111.76 3.58,109.51 5.02,108.00 5.02,108.00 18.00,95.00 18.00,95.00 18.00,95.00 53.00,60.00 53.00,60.00 57.88,55.12 66.42,45.38 72.00,42.34 Z M 74.01,48.00 C 72.52,51.72 72.29,70.54 74.01,74.00 75.80,77.56 92.95,93.95 97.00,98.00 99.70,100.70 110.96,110.79 110.96,114.00 110.96,116.93 104.15,122.85 102.00,125.00 102.00,125.00 76.15,151.00 76.15,151.00 75.01,152.34 74.22,153.32 73.60,155.00 72.54,157.89 73.00,175.64 73.00,180.00 73.00,180.00 92.00,162.00 92.00,162.00 92.00,162.00 122.00,132.00 122.00,132.00 122.00,132.00 133.98,120.00 133.98,120.00 133.98,120.00 137.80,114.00 137.80,114.00 137.80,114.00 133.98,108.00 133.98,108.00 133.98,108.00 122.00,96.00 122.00,96.00 122.00,96.00 74.01,48.00 74.01,48.00 Z" style="fill: rgb(255, 255, 255);"/></svg>