<?xml version="1.0" encoding="UTF-8" standalone="no"?>
<!DOCTYPE svg PUBLIC "-//W3C//DTD SVG 20010904//EN"
              "http://www.w3.org/TR/2001/REC-SVG-20010904/DTD/svg10.dtd">

<svg xmlns="http://www.w3.org/2000/svg" viewBox="0 0 140 190"> 
  <path id="Selection #2"
        fill="#000000" stroke="black" stroke-width="3"
        d="M 73.00,28.00
           C 79.63,31.14 90.33,43.33 96.00,49.00
             96.00,49.00 139.00,92.00 139.00,92.00
             139.00,92.00 154.00,107.00 154.00,107.00
             155.63,108.67 158.80,111.51 158.80,114.00
             158.80,116.49 155.63,119.33 154.00,121.00
             154.00,121.00 139.00,136.00 139.00,136.00
             139.00,136.00 96.00,179.00 96.00,179.00
             90.33,184.67 79.63,196.86 73.00,200.00
             76.09,193.46 87.46,183.54 93.00,178.00
             93.00,178.00 134.00,137.00 134.00,137.00
             134.00,137.00 150.00,121.00 150.00,121.00
             151.60,119.37 154.96,116.42 154.96,114.00
             154.96,111.58 151.60,108.63 150.00,107.00
             150.00,107.00 134.00,91.00 134.00,91.00
             134.00,91.00 93.00,50.00 93.00,50.00
             87.46,44.46 76.09,34.54 73.00,28.00 Z" />
  <path id="Selection #1"
        fill="#217dbc" stroke="black" stroke-width="1"
        d="M 73.00,48.00
           C 73.00,48.00 92.00,66.00 92.00,66.00
             92.00,66.00 122.00,96.00 122.00,96.00
             122.00,96.00 133.98,108.00 133.98,108.00
             133.98,108.00 137.80,114.00 137.80,114.00
             137.80,114.00 133.98,120.00 133.98,120.00
             133.98,120.00 122.00,132.00 122.00,132.00
             122.00,132.00 92.00,162.00 92.00,162.00
             92.00,162.00 73.00,180.00 73.00,180.00
             73.00,175.64 72.54,157.89 73.60,155.00
             74.22,153.32 75.01,152.34 76.15,151.00
             76.15,151.00 102.00,125.00 102.00,125.00
             104.15,122.85 110.96,116.93 110.96,114.00
             110.96,111.07 104.15,105.15 102.00,103.00
             102.00,103.00 76.15,77.00 76.15,77.00
             75.01,75.66 74.22,74.68 73.60,73.00
             72.54,70.11 73.00,52.36 73.00,48.00 Z" />
  <path id="Selection"
        fill="#000000" stroke="black" stroke-width="1"
        d="M 72.00,42.34
           C 76.95,42.56 79.62,46.62 83.00,50.00
             83.00,50.00 105.00,72.00 105.00,72.00
             105.00,72.00 134.00,101.00 134.00,101.00
             136.26,103.26 144.01,110.37 144.66,113.00
             145.28,115.48 143.45,117.31 141.94,119.00
             141.94,119.00 130.00,131.00 130.00,131.00
             130.00,131.00 90.00,171.00 90.00,171.00
             87.30,173.70 76.82,184.96 74.00,185.66
             71.52,186.28 69.69,184.45 68.00,182.94
             68.00,182.94 56.00,171.00 56.00,171.00
             56.00,171.00 15.00,130.00 15.00,130.00
             12.22,127.22 1.20,117.41 1.20,114.00
             1.20,111.76 3.58,109.51 5.02,108.00
             5.02,108.00 18.00,95.00 18.00,95.00
             18.00,95.00 53.00,60.00 53.00,60.00
             57.88,55.12 66.42,45.38 72.00,42.34 Z
           M 74.01,48.00
           C 72.52,51.72 72.29,70.54 74.01,74.00
             75.80,77.56 92.95,93.95 97.00,98.00
             99.70,100.70 110.96,110.79 110.96,114.00
             110.96,116.93 104.15,122.85 102.00,125.00
             102.00,125.00 76.15,151.00 76.15,151.00
             75.01,152.34 74.22,153.32 73.60,155.00
             72.54,157.89 73.00,175.64 73.00,180.00
             73.00,180.00 92.00,162.00 92.00,162.00
             92.00,162.00 122.00,132.00 122.00,132.00
             122.00,132.00 133.98,120.00 133.98,120.00
             133.98,120.00 137.80,114.00 137.80,114.00
             137.80,114.00 133.98,108.00 133.98,108.00
             133.98,108.00 122.00,96.00 122.00,96.00
             122.00,96.00 74.01,48.00 74.01,48.00 Z" />
</svg>
